<svg xmlns="http://www.w3.org/2000/svg" viewBox="-43.0 -762.0 2139.0 773.0" width="2139.0" height="773.0"><g fill="currentColor"><path d="M47.0 -40.0 195.0 -635.0 125.0 -669.0V-675.0H367.0V-669.0L276.0 -635.0L128.0 -40.0L199.0 -6.0V0.0H-43.0V-6.0Z"/><path d="M781.0 -140.0 783.0 -136.0 754.0 -107.0Q697.0 -50.0 662.0 -20.0Q627.0 10.0 605.0 10.0Q590.0 10.0 581.0 -4.0Q572.0 -18.0 572.0 -58.0Q572.0 -86.0 574.0 -103.0L660.0 -342.0Q677.0 -392.0 677.0 -424.0Q677.0 -450.0 667.5 -463.5Q658.0 -477.0 646.0 -477.0Q603.0 -477.0 534.0 -338.0Q465.0 -199.0 397.0 0.0H321.0L441.0 -468.0L298.0 -382.0L296.0 -386.0L327.0 -417.0Q384.0 -474.0 418.5 -503.5Q453.0 -533.0 474.0 -533.0Q489.0 -533.0 498.0 -518.5Q507.0 -504.0 507.0 -464.0Q507.0 -436.0 505.0 -419.0L405.0 -95.0H417.0Q477.0 -269.0 552.0 -402.5Q627.0 -536.0 698.0 -536.0Q724.0 -536.0 741.0 -516.0Q758.0 -496.0 758.0 -456.0Q758.0 -411.0 736.0 -350.0L627.0 -48.0Z"/><path d="M1301.0 -760.0H1302.0L1115.0 -47.0L1269.0 -139.0L1271.0 -136.0L1240.0 -105.0Q1183.0 -48.0 1148.5 -18.5Q1114.0 11.0 1093.0 11.0Q1078.0 11.0 1069.0 -3.5Q1060.0 -18.0 1060.0 -58.0Q1060.0 -86.0 1062.0 -103.0L1143.0 -430.0H1131.0Q1080.0 -266.0 1047.0 -178.5Q1014.0 -91.0 976.0 -40.0Q938.0 11.0 890.0 11.0Q849.0 11.0 829.5 -18.5Q810.0 -48.0 810.0 -100.0Q810.0 -182.0 848.0 -284.0Q886.0 -386.0 949.5 -457.5Q1013.0 -529.0 1085.0 -529.0Q1130.0 -529.0 1164.0 -514.0L1213.0 -711.0L1098.0 -708.0L1100.0 -714.0L1296.0 -762.0H1302.0ZM1124.0 -459.0Q1112.0 -482.0 1092.5 -493.0Q1073.0 -504.0 1051.0 -504.0Q1009.0 -504.0 972.0 -439.5Q935.0 -375.0 912.5 -285.0Q890.0 -195.0 890.0 -128.0Q890.0 -90.0 900.5 -68.5Q911.0 -47.0 932.0 -47.0Q953.0 -47.0 973.5 -73.5Q994.0 -100.0 1029.5 -189.0Q1065.0 -278.0 1124.0 -459.0Z"/><path d="M1667.0 -445.0Q1666.0 -360.0 1584.0 -313.5Q1502.0 -267.0 1377.0 -247.0Q1372.0 -160.0 1404.0 -103.0Q1436.0 -46.0 1507.0 -46.0Q1529.0 -46.0 1544.0 -51.5Q1559.0 -57.0 1573.0 -65.5Q1587.0 -74.0 1594.0 -78.0L1599.0 -72.0Q1491.0 10.0 1454.0 10.0Q1387.0 10.0 1345.5 -37.0Q1304.0 -84.0 1304.0 -169.0Q1304.0 -216.0 1317.0 -268.0Q1339.0 -361.0 1384.5 -421.0Q1430.0 -481.0 1478.5 -507.5Q1527.0 -534.0 1560.0 -534.0Q1617.0 -534.0 1643.0 -506.0Q1669.0 -478.0 1667.0 -445.0ZM1585.0 -423.0Q1585.0 -451.0 1571.0 -471.5Q1557.0 -492.0 1518.0 -492.0Q1483.0 -492.0 1447.0 -456.0Q1411.0 -420.0 1388.0 -322.0Q1381.0 -295.0 1378.0 -262.0Q1422.0 -268.0 1469.5 -286.5Q1517.0 -305.0 1551.0 -339.0Q1585.0 -373.0 1585.0 -423.0Z"/><path d="M2040.0 -448.0Q1993.0 -448.0 1961.0 -412.0Q1929.0 -376.0 1894.0 -299.0L1930.0 -52.0L2061.0 -143.0L2063.0 -140.0Q2054.0 -131.0 2040.5 -115.0Q2027.0 -99.0 2017.0 -88.0Q1978.0 -40.0 1954.0 -16.5Q1930.0 7.0 1910.0 8.0Q1897.0 8.0 1889.0 -1.5Q1881.0 -11.0 1873.5 -30.5Q1866.0 -50.0 1852.0 -97.0L1836.0 -207.0Q1798.0 -116.0 1776.5 -75.5Q1755.0 -35.0 1721.0 -13.0Q1687.0 9.0 1631.0 4.0L1628.0 -1.0L1658.0 -79.0H1683.0Q1732.0 -79.0 1764.5 -115.0Q1797.0 -151.0 1833.0 -233.0L1798.0 -477.0L1665.0 -391.0L1663.0 -395.0Q1680.0 -410.0 1718.0 -450.0Q1754.0 -490.0 1778.0 -511.0Q1802.0 -532.0 1821.0 -532.0Q1833.0 -532.0 1841.0 -523.0Q1849.0 -514.0 1855.5 -494.0Q1862.0 -474.0 1875.0 -428.0L1890.0 -325.0Q1928.0 -413.0 1949.0 -452.0Q1970.0 -491.0 2004.5 -512.5Q2039.0 -534.0 2095.0 -529.0L2096.0 -523.0L2068.0 -448.0Z"/></g></svg>