<svg xmlns="http://www.w3.org/2000/svg" viewBox="-43.0 -675.0 2353.0 933.0" width="2353.0" height="933.0"><g fill="currentColor"><path d="M617.0 -675.0 615.0 -669.0 294.0 -396.0 483.0 -6.0 482.0 0.0H308.0V-6.0L378.0 -43.0L228.0 -340.0L196.0 -313.0L128.0 -40.0L199.0 -6.0V0.0H-43.0V-6.0L47.0 -40.0L195.0 -635.0L125.0 -669.0V-675.0H367.0V-669.0L276.0 -635.0L203.0 -342.0L413.0 -522.0Q478.0 -578.0 478.0 -616.0Q478.0 -633.0 467.5 -645.5Q457.0 -658.0 438.0 -670.0L439.0 -675.0Z"/><path d="M923.0 -445.0Q922.0 -360.0 840.0 -313.5Q758.0 -267.0 633.0 -247.0Q628.0 -160.0 660.0 -103.0Q692.0 -46.0 763.0 -46.0Q785.0 -46.0 800.0 -51.5Q815.0 -57.0 829.0 -65.5Q843.0 -74.0 850.0 -78.0L855.0 -72.0Q747.0 10.0 710.0 10.0Q643.0 10.0 601.5 -37.0Q560.0 -84.0 560.0 -169.0Q560.0 -216.0 573.0 -268.0Q595.0 -361.0 640.5 -421.0Q686.0 -481.0 734.5 -507.5Q783.0 -534.0 816.0 -534.0Q873.0 -534.0 899.0 -506.0Q925.0 -478.0 923.0 -445.0ZM841.0 -423.0Q841.0 -451.0 827.0 -471.5Q813.0 -492.0 774.0 -492.0Q739.0 -492.0 703.0 -456.0Q667.0 -420.0 644.0 -322.0Q637.0 -295.0 634.0 -262.0Q678.0 -268.0 725.5 -286.5Q773.0 -305.0 807.0 -339.0Q841.0 -373.0 841.0 -423.0Z"/><path d="M1402.0 -140.0 1404.0 -136.0 1375.0 -107.0Q1318.0 -50.0 1283.0 -20.0Q1248.0 10.0 1226.0 10.0Q1211.0 10.0 1202.0 -4.0Q1193.0 -18.0 1193.0 -58.0Q1193.0 -86.0 1195.0 -103.0L1281.0 -342.0Q1298.0 -392.0 1298.0 -424.0Q1298.0 -450.0 1288.5 -463.5Q1279.0 -477.0 1267.0 -477.0Q1224.0 -477.0 1155.0 -338.0Q1086.0 -199.0 1018.0 0.0H942.0L1062.0 -468.0L919.0 -382.0L917.0 -386.0L948.0 -417.0Q1005.0 -474.0 1039.5 -503.5Q1074.0 -533.0 1095.0 -533.0Q1110.0 -533.0 1119.0 -518.5Q1128.0 -504.0 1128.0 -464.0Q1128.0 -436.0 1126.0 -419.0L1026.0 -95.0H1038.0Q1098.0 -269.0 1173.0 -402.5Q1248.0 -536.0 1319.0 -536.0Q1345.0 -536.0 1362.0 -516.0Q1379.0 -496.0 1379.0 -456.0Q1379.0 -411.0 1357.0 -350.0L1248.0 -48.0Z"/><path d="M1796.0 -524.0H1881.0Q1855.0 -366.0 1769.5 -212.0Q1684.0 -58.0 1540.5 66.5Q1397.0 191.0 1206.0 258.0L1225.0 185.0L1230.0 182.0Q1416.0 147.0 1548.0 36.0L1566.0 -465.0L1426.0 -382.0L1424.0 -386.0Q1424.0 -386.0 1454.0 -416.0Q1508.0 -471.0 1544.5 -502.0Q1581.0 -533.0 1603.0 -533.0Q1614.0 -533.0 1621.0 -525.0Q1628.0 -517.0 1632.5 -492.5Q1637.0 -468.0 1640.0 -419.0L1615.0 -28.0Q1702.0 -126.0 1747.0 -254.0Q1792.0 -382.0 1793.0 -520.0Z"/><path d="M2308.0 -143.0 2310.0 -139.0 2279.0 -108.0Q2222.0 -51.0 2187.5 -21.5Q2153.0 8.0 2132.0 8.0Q2117.0 8.0 2108.0 -6.5Q2099.0 -21.0 2099.0 -61.0Q2099.0 -89.0 2101.0 -106.0L2191.0 -430.0V-431.0L2190.0 -430.0H2178.0Q2127.0 -266.0 2094.0 -178.5Q2061.0 -91.0 2023.0 -40.0Q1985.0 11.0 1937.0 11.0Q1896.0 11.0 1876.5 -18.5Q1857.0 -48.0 1857.0 -100.0Q1857.0 -182.0 1895.0 -284.0Q1933.0 -386.0 1996.5 -457.5Q2060.0 -529.0 2132.0 -529.0Q2188.0 -529.0 2229.0 -505.0L2293.0 -549.0L2297.0 -548.0L2258.0 -427.0L2154.0 -50.0ZM2171.0 -459.0Q2159.0 -482.0 2139.5 -493.0Q2120.0 -504.0 2098.0 -504.0Q2056.0 -504.0 2019.0 -439.5Q1982.0 -375.0 1959.5 -285.0Q1937.0 -195.0 1937.0 -128.0Q1937.0 -90.0 1947.5 -68.5Q1958.0 -47.0 1979.0 -47.0Q2000.0 -47.0 2020.5 -73.5Q2041.0 -100.0 2076.5 -189.0Q2112.0 -278.0 2171.0 -459.0Z"/></g></svg>