<svg xmlns="http://www.w3.org/2000/svg" viewBox="25.0 -682.0 1468.0 690.0" width="1468.0" height="690.0" xmlns:c2pa="http://c2pa.org/manifest"><g fill="currentColor"><path d="M459.0 -675.0H614.0L444.0 8.0H412.0L194.0 -575.0H189.0L105.0 -237.0Q86.0 -159.0 86.0 -124.0Q86.0 -80.0 107.5 -56.5Q129.0 -33.0 182.0 -6.0V0.0H25.0L178.0 -615.0L152.0 -669.0L153.0 -675.0H249.0L451.0 -120.0H456.0L534.0 -437.0Q552.0 -508.0 552.0 -549.0Q552.0 -593.0 531.0 -618.0Q510.0 -643.0 459.0 -669.0Z"/><path d="M743.0 -538.0Q743.0 -574.0 762.5 -607.5Q782.0 -641.0 815.0 -661.5Q848.0 -682.0 885.0 -682.0Q930.0 -682.0 958.5 -654.0Q987.0 -626.0 987.0 -581.0Q987.0 -573.0 985.0 -557.0Q977.0 -507.0 937.5 -471.5Q898.0 -436.0 847.0 -436.0Q801.0 -436.0 772.0 -464.0Q743.0 -492.0 743.0 -538.0ZM964.0 -578.0Q964.0 -616.0 941.0 -638.5Q918.0 -661.0 882.0 -661.0Q852.0 -661.0 825.5 -644.5Q799.0 -628.0 783.0 -600.5Q767.0 -573.0 767.0 -541.0Q767.0 -503.0 790.5 -480.0Q814.0 -457.0 850.0 -457.0Q880.0 -457.0 906.0 -473.5Q932.0 -490.0 948.0 -518.0Q964.0 -546.0 964.0 -578.0Z"/><path d="M1491.0 -669.0 1227.0 -427.0 1228.0 -423.0Q1256.0 -427.0 1268.0 -427.0Q1332.0 -427.0 1367.0 -392.5Q1402.0 -358.0 1402.0 -302.0Q1402.0 -281.0 1396.0 -257.0Q1381.0 -197.0 1323.5 -138.0Q1266.0 -79.0 1170.5 -39.5Q1075.0 0.0 953.0 1.0L976.0 -90.0L981.0 -93.0Q1035.0 -66.0 1103.0 -66.0Q1183.0 -66.0 1244.0 -98.5Q1305.0 -131.0 1327.0 -209.0Q1334.0 -234.0 1334.0 -259.0Q1334.0 -308.0 1301.5 -336.0Q1269.0 -364.0 1215.0 -364.0Q1178.0 -364.0 1128.0 -348.0L1124.0 -357.0L1388.0 -601.0H1183.0Q1164.0 -601.0 1151.0 -592.5Q1138.0 -584.0 1123.5 -561.5Q1109.0 -539.0 1088.0 -493.0H1083.0L1127.0 -671.0L1131.0 -675.0H1493.0Z"/></g></svg>